<?xml version="1.0" standalone="no"?>
<!DOCTYPE svg PUBLIC "-//W3C//DTD SVG 20010904//EN"
 "http://www.w3.org/TR/2001/REC-SVG-20010904/DTD/svg10.dtd">
<svg version="1.0" xmlns="http://www.w3.org/2000/svg"
 width="512.000000pt" height="512.000000pt" viewBox="0 0 512.000000 512.000000"
 preserveAspectRatio="xMidYMid meet">

<g transform="translate(0.000000,512.000000) scale(0.100000,-0.100000)"
fill="#000000" stroke="none">
<path d="M2660 4331 c0 -6 4 -11 9 -11 18 0 111 -93 111 -110 0 -24 -26 -30
-150 -36 -384 -18 -536 -37 -750 -93 -456 -120 -797 -371 -979 -721 -27 -52
-54 -111 -59 -130 -5 -19 -13 -43 -17 -52 -4 -11 -3 -18 4 -18 6 0 11 7 11 15
0 8 4 23 9 33 5 9 28 55 51 102 61 123 136 226 210 288 95 79 230 166 350 223
58 28 113 55 122 60 10 5 23 9 30 9 7 0 25 6 39 14 14 7 43 16 64 20 20 4 45
11 54 16 20 12 197 46 311 61 132 17 476 22 623 10 218 -19 302 -36 671 -134
162 -44 183 -39 131 28 -26 35 -149 134 -253 204 -35 24 -61 45 -58 48 7 7
261 -127 361 -190 270 -172 423 -338 465 -504 11 -41 11 -58 1 -79 -10 -23
-16 -26 -44 -20 -33 7 -60 24 -169 109 -128 100 -378 239 -558 311 -224 88
-444 133 -700 143 -309 11 -573 -32 -830 -134 -19 -7 -44 -17 -55 -20 -45 -14
-248 -124 -319 -173 -179 -124 -322 -329 -388 -556 -21 -71 -23 -100 -23 -284
0 -208 10 -290 52 -425 128 -417 438 -799 886 -1092 265 -173 544 -303 832
-388 55 -17 93 -35 69 -35 -29 1 -194 43 -287 74 -445 149 -845 389 -1191 718
-66 62 -114 104 -108 93 19 -35 254 -259 357 -341 110 -87 281 -201 390 -260
149 -80 345 -174 364 -174 6 0 19 -4 29 -10 46 -25 252 -98 337 -119 22 -5 67
-17 100 -25 324 -84 645 -106 645 -45 0 34 -74 99 -196 172 -132 79 -214 176
-214 253 0 34 5 47 26 63 15 12 35 21 45 21 10 0 20 4 23 9 3 4 20 11 38 15
49 10 192 65 283 109 113 55 209 120 283 191 58 54 122 137 122 157 0 4 -33
-25 -73 -65 -179 -176 -491 -299 -827 -326 -220 -17 -232 -19 -251 -36 -25
-23 -24 -74 2 -127 12 -23 64 -83 117 -133 103 -100 113 -124 47 -124 -51 0
-223 48 -312 86 -17 8 -36 14 -42 14 -6 0 -19 4 -29 10 -9 5 -33 16 -52 24
-354 146 -659 352 -929 626 -170 173 -270 310 -363 495 -45 90 -98 240 -98
275 0 10 -4 21 -9 24 -5 3 -14 63 -21 134 -30 316 52 574 256 805 58 65 223
217 237 217 5 0 25 13 45 30 107 85 357 185 567 226 171 33 456 29 680 -10
125 -22 345 -83 420 -116 11 -5 49 -21 85 -35 111 -45 200 -85 210 -95 3 -3
21 -13 40 -22 19 -10 58 -31 85 -47 28 -17 64 -38 80 -47 17 -9 69 -46 117
-81 229 -169 308 -203 344 -148 38 59 -41 265 -157 409 -90 112 -237 237 -404
341 -99 62 -353 189 -400 201 -16 4 -34 10 -40 14 -10 8 -24 13 -150 48 -136
39 -335 65 -335 43z"/>
<path d="M3838 3693 c-25 -6 -22 -35 5 -61 29 -28 57 -29 57 -3 0 27 -41 69
-62 64z"/>
<path d="M1900 3350 c-90 -11 -171 -40 -242 -87 -117 -77 -184 -176 -213 -315
-19 -91 -19 -150 0 -258 37 -208 141 -388 353 -611 179 -188 387 -343 593
-441 197 -95 189 -92 244 -74 175 60 387 184 569 334 128 105 186 162 280 277
152 184 198 267 257 465 22 72 19 301 -5 370 -56 161 -171 268 -346 322 -94
30 -276 29 -380 -2 -141 -41 -243 -99 -350 -199 -30 -28 -58 -51 -63 -51 -5 0
-34 23 -65 51 -187 166 -416 246 -632 219z m184 -88 c2 -4 -32 -14 -76 -20
-116 -19 -201 -57 -271 -121 -129 -120 -172 -276 -131 -476 34 -162 111 -307
255 -474 49 -58 86 -107 83 -110 -4 -3 -48 38 -98 91 -228 241 -336 456 -336
670 0 261 198 445 482 447 48 1 89 -3 92 -7z"/>
<path d="M810 3129 c0 -11 5 -17 10 -14 6 3 10 13 10 21 0 8 -4 14 -10 14 -5
0 -10 -9 -10 -21z"/>
<path d="M802 3080 c0 -14 2 -19 5 -12 2 6 2 18 0 25 -3 6 -5 1 -5 -13z"/>
<path d="M780 3010 c0 -5 5 -10 10 -10 6 0 10 5 10 10 0 6 -4 10 -10 10 -5 0
-10 -4 -10 -10z"/>
<path d="M1150 1755 c13 -14 26 -25 28 -25 3 0 -5 11 -18 25 -13 14 -26 25
-28 25 -3 0 5 -11 18 -25z"/>
</g>
</svg>
