<?xml version="1.0" standalone="no"?>
<!DOCTYPE svg PUBLIC "-//W3C//DTD SVG 20010904//EN"
 "http://www.w3.org/TR/2001/REC-SVG-20010904/DTD/svg10.dtd">
<svg version="1.0" xmlns="http://www.w3.org/2000/svg"
 width="411.000000pt" height="142.000000pt" viewBox="0 0 411.000000 142.000000"
 preserveAspectRatio="xMidYMid meet">

<g transform="translate(0.000000,142.000000) scale(0.100000,-0.100000)"
fill="#000000" stroke="none">
<path d="M818 1403 c49 -34 11 -53 -111 -53 -78 0 -244 -34 -312 -64 -75 -34
-166 -98 -208 -146 -34 -40 -102 -158 -95 -165 2 -2 19 25 37 61 38 72 82 113
183 168 182 100 438 118 706 51 57 -15 107 -24 110 -20 7 7 -43 56 -88 87
l-25 18 25 -9 c43 -15 133 -71 187 -117 59 -51 90 -96 95 -139 4 -40 -15 -36
-95 19 -160 112 -289 156 -472 161 -116 3 -120 3 -40 -4 50 -4 106 -11 125
-15 145 -31 296 -97 422 -186 88 -62 108 -64 108 -12 0 79 -123 213 -266 289
-81 43 -235 93 -283 92 l-26 0 23 -16z"/>
<path d="M568 1243 c6 -2 18 -2 25 0 6 3 1 5 -13 5 -14 0 -19 -2 -12 -5z"/>
<path d="M528 1233 c7 -3 16 -2 19 1 4 3 -2 6 -13 5 -11 0 -14 -3 -6 -6z"/>
<path d="M450 1216 c-133 -49 -240 -138 -286 -239 -27 -57 -29 -71 -28 -177 0
-100 4 -124 27 -184 15 -37 44 -96 64 -130 46 -75 167 -198 254 -255 74 -49
245 -134 307 -152 23 -7 40 -14 38 -17 -8 -7 -137 38 -224 78 -102 48 -203
114 -302 198 l-75 64 66 -65 c175 -170 470 -305 710 -324 105 -8 112 7 29 64
-70 48 -101 83 -98 111 3 20 15 29 78 52 118 43 179 83 223 145 19 27 17 27
-22 -9 -81 -71 -236 -125 -369 -126 -68 0 -66 -36 6 -112 20 -21 33 -40 29
-44 -9 -10 -143 34 -235 77 -110 51 -199 115 -297 214 -139 139 -201 277 -193
428 3 61 11 97 31 140 46 101 164 208 284 256 53 22 39 27 -17 7z m417 -1162
c-3 -3 -12 -4 -19 -1 -8 3 -5 6 6 6 11 1 17 -2 13 -5z"/>
<path d="M1246 1156 c7 -19 38 -22 32 -3 -3 6 -12 13 -21 15 -12 2 -15 -1 -11
-12z"/>
<path d="M461 1026 c-146 -48 -178 -223 -71 -384 65 -96 182 -200 286 -255
l92 -47 56 25 56 25 0 99 c0 92 2 100 20 103 18 3 11 17 -55 120 -41 64 -75
120 -75 123 0 3 78 5 173 5 171 0 174 0 184 -22 l10 -23 7 23 c6 18 15 22 47
22 21 0 39 1 39 3 0 28 -36 109 -57 129 -96 89 -235 86 -359 -8 l-45 -35 -37
32 c-75 66 -185 92 -271 65z m94 -26 c-11 -5 -32 -11 -47 -14 -34 -8 -84 -50
-103 -87 -9 -15 -15 -55 -15 -89 0 -74 30 -145 98 -229 26 -32 33 -45 17 -31
-84 76 -155 206 -155 282 0 40 30 106 58 131 28 25 89 46 132 46 28 0 31 -2
15 -9z"/>
<path d="M889 688 l79 -123 -29 -3 -29 -3 0 -85 0 -84 93 0 c169 0 209 24 288
170 l54 100 3 -135 3 -135 49 0 c28 0 50 -1 50 -2 0 -2 -9 -32 -21 -68 -42
-134 -56 -191 -49 -195 27 -16 153 -28 205 -18 l56 10 -6 -39 -7 -38 95 0 95
0 6 35 c6 29 11 35 31 35 22 0 24 -2 15 -26 -6 -14 -10 -30 -10 -35 0 -5 42
-9 94 -9 l95 0 12 54 12 54 36 -22 c50 -29 159 -29 217 2 l42 21 -18 -70 -18
-70 101 3 101 3 11 45 c11 44 12 45 48 42 39 -4 113 24 135 50 12 15 16 14 39
-8 57 -53 152 -56 266 -9 12 5 17 2 17 -9 0 -14 18 -16 134 -16 74 0 146 4
160 10 17 6 26 6 26 0 0 -6 56 -10 143 -10 131 0 145 2 184 24 40 23 42 23 58
6 24 -27 107 -44 173 -36 92 11 101 15 111 52 5 19 16 41 24 49 9 8 19 40 23
71 8 65 -9 97 -67 126 -78 40 -226 6 -266 -62 -16 -27 -18 -28 -44 -14 -16 8
-40 14 -55 14 -27 0 -28 11 -8 64 5 14 -7 16 -96 16 -91 0 -102 -2 -107 -19
-4 -18 -6 -18 -41 0 -29 16 -59 19 -159 19 -113 0 -123 -2 -123 -18 0 -30 -8
-30 -57 -6 -25 13 -63 24 -84 24 -35 0 -44 7 -123 96 l-85 96 85 96 85 97
-148 3 c-141 3 -149 2 -165 -19 l-18 -21 0 21 c0 21 0 21 -272 19 l-272 -3
-11 -39 -11 -38 -9 38 -10 39 -432 3 -431 2 -13 -37 -13 -38 -14 38 -15 37
-148 0 -148 0 78 -122z m217 22 c15 -39 29 -69 30 -67 2 2 14 32 28 68 l24 64
87 3 c103 3 103 21 3 -166 -90 -169 -108 -182 -246 -182 l-92 0 0 49 0 50 46
3 45 3 -75 118 c-42 65 -76 120 -76 123 0 2 45 4 99 4 l99 0 28 -70z m614 15
l0 -55 -80 0 -80 0 0 -120 0 -120 -90 0 -90 0 0 175 0 175 170 0 170 0 0 -55z
m299 -37 l26 -87 25 87 26 87 127 3 127 3 0 -176 0 -175 -80 0 -80 0 0 118 -1
117 -37 -115 -38 -115 -74 0 -75 0 -37 120 -37 120 0 -122 -1 -123 -75 0 -75
0 0 175 0 176 127 -3 127 -3 25 -87z m553 31 l3 -61 44 61 44 61 105 0 104 0
-76 -81 c-87 -94 -89 -73 23 -198 l63 -71 -105 0 -106 0 -48 63 -48 62 -3 -62
-3 -63 -89 0 -90 0 0 175 0 175 90 0 89 0 3 -61z m-872 -198 l0 -109 -42 5
c-71 8 -68 3 -68 113 l0 100 55 0 55 0 0 -109z m925 -91 c3 -5 1 -10 -4 -10
-6 0 -11 5 -11 10 0 6 2 10 4 10 3 0 8 -4 11 -10z m-860 -92 c-8 -28 -21 -58
-30 -67 -15 -15 -15 -14 -1 14 19 35 20 59 6 86 -9 16 -7 19 14 19 l24 0 -13
-52z m365 48 c0 -2 -7 -9 -15 -16 -12 -10 -15 -10 -15 4 0 9 7 16 15 16 8 0
15 -2 15 -4z m300 -12 c0 -14 -3 -14 -15 -4 -8 7 -15 14 -15 16 0 2 7 4 15 4
8 0 15 -7 15 -16z m389 13 c-2 -1 -11 -8 -20 -15 -13 -10 -19 -9 -29 3 -11 13
-8 15 20 15 19 0 31 -1 29 -3z m-1131 -23 c29 -20 28 -49 -3 -78 -21 -19 -23
-25 -10 -30 16 -6 20 -33 9 -61 -15 -39 -138 -66 -219 -48 -32 7 -39 13 -37
29 6 30 15 34 54 24 24 -7 45 -7 62 0 45 17 28 50 -26 50 -35 0 -13 24 31 33
32 6 41 13 39 25 -3 14 -14 17 -59 15 -54 -2 -56 -1 -51 22 5 29 16 32 112 34
54 1 82 -4 98 -15z m366 -11 c-4 -16 -13 -48 -20 -73 -18 -58 -17 -70 2 -70 9
0 14 -6 11 -13 -2 -6 -10 -36 -17 -64 l-14 -53 -52 0 -53 0 6 35 6 35 -61 0
c-61 0 -62 0 -70 -32 -8 -31 -11 -33 -61 -36 l-53 -3 6 28 c21 85 28 103 41
103 20 0 60 57 75 105 6 22 13 46 15 53 3 9 37 12 125 12 l120 0 -6 -27z m299
15 c33 -17 46 -39 47 -78 0 -44 -30 -94 -72 -120 -42 -25 -129 -36 -179 -21
-95 29 -83 157 19 211 43 22 150 27 185 8z m221 -10 l-6 -21 27 21 c39 31 118
31 139 0 39 -56 2 -164 -68 -197 -51 -25 -74 -26 -104 -5 -13 9 -25 14 -26 13
-2 -2 -11 -30 -20 -61 l-17 -58 -54 0 c-37 0 -55 4 -55 13 0 6 14 64 31 127
16 63 35 132 40 153 l10 37 55 0 c52 0 55 -1 48 -22z m487 -7 c34 -35 37 -71
10 -121 -48 -91 -238 -120 -288 -44 -23 35 -12 99 24 136 40 43 78 57 156 58
63 0 71 -3 98 -29z m329 9 c23 -23 15 -57 -16 -75 -10 -5 -21 -11 -23 -13 -3
-1 5 -9 17 -18 30 -20 28 -40 -7 -75 -29 -29 -31 -29 -145 -29 -64 0 -116 4
-116 9 0 12 51 204 57 214 2 4 51 7 109 7 90 0 107 -3 124 -20z m199 -12 c-13
-48 -14 -48 44 -48 65 0 90 -21 85 -71 -2 -25 -12 -39 -37 -56 -30 -21 -46
-23 -147 -23 -63 0 -114 1 -114 3 0 1 9 34 19 72 11 39 24 89 31 113 l11 42
59 0 59 0 -10 -32z m421 17 c34 -17 44 -44 35 -91 l-6 -34 -84 0 c-68 0 -85
-3 -85 -15 0 -24 32 -33 85 -25 28 4 51 7 52 6 1 0 -1 -13 -4 -27 -5 -25 -10
-27 -68 -34 -100 -10 -148 4 -174 53 -25 48 17 134 81 165 41 21 130 22 168 2z
m-2550 -105 c0 -5 -5 -10 -11 -10 -5 0 -7 5 -4 10 3 6 8 10 11 10 2 0 4 -4 4
-10z"/>
<path d="M1888 293 c-7 -15 -20 -40 -31 -55 l-18 -28 35 0 c34 0 36 2 47 45
14 55 14 59 -5 63 -10 2 -21 -8 -28 -25z"/>
<path d="M2226 291 c-23 -44 -21 -81 5 -81 22 0 53 58 47 88 -6 29 -36 25 -52
-7z"/>
<path d="M2566 288 c-23 -32 -21 -78 2 -78 28 0 52 32 52 68 0 25 -4 32 -19
32 -11 0 -27 -10 -35 -22z"/>
<path d="M2911 293 c-20 -50 -18 -78 5 -81 24 -3 44 32 44 78 0 40 -33 41 -49
3z"/>
<path d="M3246 314 c-4 -9 -4 -19 -1 -22 9 -9 56 18 50 28 -10 16 -42 12 -49
-6z"/>
<path d="M3227 243 c-11 -10 -8 -53 4 -53 19 0 49 21 49 34 0 20 -39 34 -53
19z"/>
<path d="M3560 241 c-5 -11 -10 -24 -10 -30 0 -19 39 -12 50 9 8 15 6 21 -9
30 -16 8 -22 6 -31 -9z"/>
<path d="M3891 311 c-16 -29 -14 -31 25 -31 31 0 35 3 32 23 -4 29 -43 35 -57
8z"/>
</g>
</svg>
