<svg width="22" height="48" viewBox="0 0 22 48" fill="none" xmlns="http://www.w3.org/2000/svg">
<path d="M12 1C12 0.447715 11.5523 0 11 0C10.4477 0 10 0.447715 10 1V44.5858L1.70711 36.2929C1.31658 35.9024 0.683417 35.9024 0.292893 36.2929C-0.0976311 36.6834 -0.0976311 37.3166 0.292893 37.7071L10.2929 47.7071C10.3993 47.8135 10.5236 47.8909 10.6562 47.9393C10.6734 47.9456 10.6908 47.9514 10.7085 47.9568C10.7693 47.9753 10.8326 47.9882 10.8978 47.9948C10.9169 47.9967 10.9362 47.9981 10.9557 47.999C11.2262 48.0109 11.5006 47.9136 11.7071 47.7071L21.7071 37.7071C22.0976 37.3166 22.0976 36.6834 21.7071 36.2929C21.3166 35.9024 20.6834 35.9024 20.2929 36.2929L12 44.5858V1Z" fill="#F4662A"/>
</svg>
