<svg width="302" height="105" viewBox="0 0 302 105" fill="none" xmlns="http://www.w3.org/2000/svg">
<path d="M52.9883 36.2171L52.7062 35.9775C37.6868 20.189 12.9105 29.3536 20.7171 51.6901C24.1911 61.4931 36.6014 72.643 45.5006 77.169C48.0081 78.4473 50.3457 79.4412 52.4703 80.3481L52.7028 80.441L52.9883 80.5624L53.2692 80.449L53.5098 80.3481C55.6761 79.4412 58.0494 78.4473 60.5985 77.169C69.6436 72.643 82.2663 61.4931 85.7935 51.6901C93.7298 29.3536 68.5429 20.189 53.2739 35.9775L52.9883 36.2171Z" fill="#D74E22"/>
<path d="M38.7955 31.1882C27.9021 29.425 18.2167 36.9512 23.1877 50.7631C25.0962 55.992 29.9944 61.771 35.3412 66.454C30.843 62.0347 26.9969 57.0271 25.3205 52.4254C20.4918 39.0183 28.5586 31.1435 38.7955 31.1882Z" fill="#FEFEFE"/>
<path d="M13.789 68.8528C16.6236 72.7838 20.0825 76.5945 24.05 80.161C35.7584 90.6805 47.407 94.9555 52.3745 96.6865C62.3002 100.136 63.1361 98.6067 59.1894 95.6468C55.061 92.5491 52.8669 88.1206 56.0321 87.0361L56.6969 86.8664H56.7016L56.905 86.8378L57.1211 86.8137L57.3489 86.7975L57.4924 86.7895L57.602 86.7861C58.3489 86.7495 59.1108 86.9754 59.8785 86.9638C71.2192 86.7689 82.8595 83.9223 89.3472 73.646C87.3981 79.4204 80.893 85.1846 66.469 89.3049C63.7603 90.0775 63.4507 94.2469 71.4771 99.165C75.951 101.814 77.3163 103.392 76.7127 104.224C76.1867 105.082 73.6342 105.15 70.1834 104.807L69.854 104.774L69.5186 104.738C40.2405 101.507 5.0817 81.1275 0.473634 51.1477L0.355679 50.3143L0.294473 49.8007L0.273646 49.6471C-2.19807 28.4672 11.9785 7.48903 46.718 5.05858C52.2068 4.67458 55.9178 4.90957 57.6958 4.42019C60.3547 3.6876 54.3444 0.0235832 54.4009 0.0235832C68.1082 -0.615012 91.1171 11.8294 96.5587 23.5089C97.3124 24.9328 97.88 26.4003 98.1563 27.8642C99.7841 36.515 89.5149 27.2463 85.6768 24.7952C65.8771 12.1527 40.0048 7.48567 21.6397 20.1235C2.68862 33.1663 2.54176 52.2036 13.789 68.8528Z" fill="#2B2A29"/>
<path d="M89.6339 73.3945C84.2375 81.3735 72.2434 86.5301 57.35 86.8005C52.4312 86.8901 54.7884 91.9331 59.2587 95.3826L59.3361 95.4435L59.4702 95.5489L59.6251 95.6623L59.6587 95.6865L59.6749 95.7025L59.6865 95.7105L59.8459 95.8275L59.8785 95.8561L59.9316 95.8928L59.9847 95.9329L60.0704 96.0018L60.1027 96.0222L60.172 96.0739L60.1881 96.0911L60.2206 96.1152L60.2415 96.1312L60.2495 96.1348L60.5316 96.3535L60.5881 96.3984L60.5964 96.4064L60.5998 96.4098L60.6529 96.4511L60.7303 96.5108L60.7836 96.5519L60.8078 96.5715L60.8576 96.6128L60.9107 96.6528L61.0078 96.7297L61.061 96.7698V96.7744L61.1511 96.8465L61.1594 96.8511L61.2078 96.8914L61.261 96.9314L61.306 96.9727L61.3305 96.9921L61.4078 97.0495L61.4529 97.0897L61.5339 97.1584L61.6854 97.2834L61.6935 97.2914L61.6969 97.296L61.7997 97.3808L61.9211 97.4864H61.9258L61.9708 97.5264V97.5298L62.15 97.6847L62.1823 97.7121L62.3986 97.9104L62.4031 97.915L62.4437 97.9507C64.7892 100.127 64.854 101.522 54.3282 97.8978C53.6265 97.6594 52.7617 97.3567 51.7628 96.9888H51.7583L51.6774 96.9567L51.0855 96.7377L50.9756 96.6931L50.185 96.3938L50.1108 96.3618L49.7155 96.2081L49.7074 96.2035L49.6056 96.1632L48.8103 95.8481L48.8023 95.8435L48.4023 95.6819L48.333 95.6543L48.0958 95.5569L47.9825 95.5088L47.8554 95.4559C47.3906 95.2612 46.9099 95.0593 46.4196 94.8449L46.3584 94.8163L46.237 94.7636L45.3722 94.376L45.3225 94.3553L45.3144 94.352L45.0496 94.2306L44.8543 94.141L44.7803 94.109L44.5111 93.984L44.3814 93.9233L44.1283 93.8053C42.7294 93.146 41.2613 92.4145 39.74 91.5972L39.3481 91.3875L39.3447 91.3828L39.0429 91.2212L38.9366 91.1605L38.7447 91.0515L38.4395 90.8819C38.0557 90.6675 37.6719 90.4485 37.2846 90.226L37.2151 90.1859L36.91 90.0036L36.6001 89.8226L36.2858 89.6356L36.1308 89.5429L36.1261 89.5393L35.8001 89.341L35.3678 89.0773L35.3517 89.0693L35.0371 88.871H35.0337L34.7239 88.6773V88.6737C31.3389 86.5461 27.843 83.9987 24.4708 80.9689C3.68391 62.2882 -2.13558 36.4904 21.641 20.1266C23.4351 18.893 25.1033 17.8384 27.1587 16.9728C24.6789 17.9187 20.5762 19.7632 16.5509 22.917C9.36483 28.5596 6.35094 35.6204 4.67472 44.3478C4.85856 44.1542 4.50363 38.6332 6.29781 33.9385C7.93365 29.6671 11.322 25.7612 11.5022 25.5904C13.9161 23.403 16.5751 21.4611 19.4177 19.7746C24.5356 16.8147 30.3759 14.6066 35.992 13.325C41.481 12.111 47.2276 11.6385 53.0023 11.9538L52.4726 11.8438C62.0771 12.4067 69.1938 14.5939 76.3059 18.2339C78.6839 19.4513 83.6837 21.8301 87.627 25.0332C91.7379 28.3727 95.1276 30.6141 96.383 30.3068C96.9944 30.0558 97.1944 28.4093 96.8478 26.95C93.9808 14.8738 75.6365 3.82804 61.1674 2.34009C61.9823 2.61513 64.4782 3.47607 66.7997 4.96086C70.425 7.27413 73.1244 10.0726 68.0793 9.15894C58.2184 7.3637 48.9444 6.94282 39.3608 8.32202C29.6742 10.1173 20.8535 13.1587 13.663 17.616C3.01465 26.3997 -1.45464 38.6089 0.473646 51.1507C1.67699 58.9807 4.9729 66.1583 9.69531 72.5451C22.4188 87.3875 41.1469 95.8275 60.0217 101.672C67.8356 103.565 80.3151 104.988 65.3396 96.3858C62.1291 94.5412 59.3235 92.1555 59.2103 90.3522C59.1444 89.2803 60.3027 88.6533 62.8887 88.0868C69.1649 86.7158 73.6631 86.2915 79.3727 83.0474C83.2884 80.8232 87.0848 77.8505 89.6339 73.3945Z" fill="#D74E22"/>
<path d="M9.42603 27.5885C25.176 11.3989 53.2715 6.96687 76.2573 17.7534C78.3405 18.7071 86.7057 23.2572 89.8339 26.0879C93.435 29.2553 94.7112 28.2957 94.5193 26.2219C93.7402 20.5357 88.0144 14.1731 74.7521 7.2946L74.7925 7.32221C73.373 6.61027 71.9833 5.95566 70.6573 5.35269C69.9475 5.01337 69.2298 4.77036 70.5394 5.59105C75.1844 8.53976 80.7958 12.7779 80.107 14.0928C79.218 15.1843 70.6735 11.1843 60.2378 9.89472C39.3642 7.51716 21.278 10.7649 7.97402 23.3341C1.71757 31.0459 -1.09972 40.8936 0.47364 51.1505C1.67698 58.9806 4.97289 66.1581 9.6953 72.5449C17.3139 81.4341 26.591 88.4306 36.8568 93.8704C43.4221 97.3486 52.9489 100.661 59.046 101.409C55.4946 100.038 46.3144 97.9952 39.3239 93.9632C34.6465 91.2657 25.0374 85.7091 20.7264 81.6164C4.52786 66.2315 -3.47325 43.2884 9.42603 27.5885Z" fill="#F39314"/>
<path d="M64.2991 12.4999C68.1291 13.5992 72.069 14.8328 73.3244 15.359C82.2884 19.0871 87.5819 22.5378 91.7749 26.1523C92.7657 27.1762 94.3727 27.6932 92.709 25.4084C88.5079 20.7011 79.4907 16.604 73.1614 14.3512C70.1152 13.2312 63.4796 11.3626 58.6957 10.7034C40.6855 7.91759 24.9148 12.3897 17.4074 17.3766C19.2258 16.5157 38.5447 6.10171 64.2991 12.4999Z" fill="#FFED00"/>
<path d="M2.40999 44.5849C0.67235 74.2895 35.1874 97.0066 61.4841 101.957C33.0916 94.9637 3.07478 73.198 4.78331 43.4889C5.26533 34.9469 9.17629 27.602 15.4478 22.2884L15.4814 22.2598C7.81334 27.4288 2.94408 35.2589 2.40999 44.5849Z" fill="#FFED00"/>
<path d="M90.1247 19.4541C89.5533 18.8922 88.8804 18.6172 88.6144 18.8395C88.3495 19.0575 88.5946 19.6971 89.1659 20.2554C89.7372 20.8207 90.4137 21.0957 90.6752 20.8733C90.9398 20.651 90.6913 20.0158 90.1247 19.4541Z" fill="#2B2A29"/>
<path d="M89.8148 18.7699C89.3095 18.2769 88.7739 17.9412 88.3704 17.8242L89.3822 18.5878C90.1826 19.3649 90.5895 20.2224 90.3004 20.5057L89.7697 20.5491C90.1988 20.7797 90.5619 20.845 90.733 20.6867C91.0222 20.4037 90.6138 19.5461 89.8148 18.7699Z" fill="#2B2A29"/>
<path d="M64.9662 62.2239L52.9478 43.4985H78.7959L80.1289 46.7189L81.4387 43.4985H147.702L148.335 45.5701L148.938 43.4985H192.09V44.2758L192.685 43.4985H219.835L204.619 59.976L220.586 77.9034H192.951L192.09 76.7432V77.9034H121.21V60.0803H116.185V77.9034H94.3622V62.6208L90.7286 69.334C89.4883 71.5788 87.878 73.5517 85.7692 75.0523C82.9923 77.0345 79.7948 77.9034 76.3856 77.9034H61.7039L61.5893 62.2115L64.9662 62.2239Z" fill="#FEFEFE"/>
<path d="M76.3879 76.4035H66.0205H63.2066L63.1858 73.6167L63.1327 66.5352L63.1129 63.7163L65.9672 63.7254L67.7257 63.7334L58.4587 49.2944L55.7026 45H60.8495H75.8896H77.7821L78.5035 46.7392L80.144 50.6907L81.7462 46.7596L82.4595 45H84.368H95.8731H97.4686H98.7078H102.183H122.721H123.732H125.555H126.566H144.478H146.583L147.19 46.9982L148.369 50.8559L149.483 47.0338L150.078 45H152.206H171.089H171.778H173.924H174.609H187.744H190.575V47.7984V48.7041L192.581 46.1039L193.43 45H194.825H209.988H216.399L212.08 49.675L202.582 59.956L213.095 71.7571L217.231 76.4035H210.971H195.143H193.72L192.863 75.2549L190.575 72.1814V73.6053V76.4035H187.744H174.609H173.924H171.778H171.089H159.237H156.407V73.6053V73.4756L156.101 74.434L155.473 76.4035H153.398H142.558H140.449L139.846 74.3939L139.691 73.8803V76.4035H136.86H125.555H122.721V73.6053V58.5804H114.674V73.6053V76.4035H111.839H98.7078H95.8731V73.6053V56.6555L89.413 68.5987L89.4016 68.6183C88.4016 70.4262 86.9832 72.3395 84.8859 73.8356C82.753 75.3558 79.9924 76.4035 76.3879 76.4035Z" fill="#2B2A29"/>
<path d="M76.388 73.6076H66.0205L65.9672 66.5251L71.3786 66.5424L71.477 66.5297L71.5706 66.5137L71.6562 66.4975L71.7336 66.4815L71.8077 66.4655L71.8723 66.4482L71.9336 66.4288L71.9833 66.4081L72.0239 66.3921L72.1046 66.3474L72.1661 66.3108L72.2077 66.2705L72.2353 66.2385L72.2562 66.2098L72.2676 66.1742L72.277 66.1375L72.2804 66.0722V66.0608V66.0288L72.277 65.9875L72.2723 65.9392L72.2643 65.8831L72.2596 65.8224L72.2481 65.7569L72.24 65.6882V65.6722L72.2319 65.6515L72.2239 65.6195L72.2077 65.5792L72.1869 65.5312L72.158 65.4738L72.1301 65.4096L72.0932 65.3408L72.0515 65.2639L72.0031 65.1826L71.9499 65.0943L71.8932 65.0003L71.832 64.9042L71.7671 64.7986L71.6979 64.6896L71.6203 64.5682L60.8495 47.8008H75.8896L80.1716 58.1093L84.368 47.8008H97.4686L86.9218 67.2864C85.2617 70.2945 82.2767 73.6076 76.388 73.6076ZM174.609 73.6076V47.8008H187.744V56.9928L194.825 47.8008H209.983L198.785 59.9252L210.971 73.6076H195.143L187.744 63.6544V73.6076H174.609ZM136.86 73.6076H125.555V47.8008H144.483L148.431 60.7425L152.206 47.8008H171.089V73.6076H159.237V55.4886L153.402 73.6076H142.553L136.86 55.3958V73.6076ZM123.732 55.7845H111.839V73.6076H98.7078V47.8008H123.732V55.7845Z" fill="#FEFEFE"/>
<path d="M274.886 82.3085C275.514 81.1196 276.293 80.0157 277.169 79.0654C280.432 75.5344 284.922 74.0142 289.694 74.0142C294.344 74.0142 299.421 75.6524 301.052 80.4077C301.419 81.5036 301.541 82.6811 301.488 83.8331C301.427 85.2043 301.149 86.5146 300.754 87.8135L299.87 90.887H298.552L297.03 96.5526L295.391 96.9492C292.305 97.6978 289.201 98.0454 286.027 98.0454C282.72 98.0454 279.278 97.5924 276.627 95.4889C275.917 94.943 275.322 94.324 274.837 93.6454L274.164 94.332C271.452 96.8405 267.675 97.6371 264.062 97.6371H247.328L247.802 95.8406C245.734 97.1155 243.271 97.6371 240.841 97.6371H223.039L223.85 94.5957C220.53 97.0055 216.407 98.0454 212.308 98.0454C208.536 98.0454 204.372 97.2852 201.745 94.3733C201.395 93.9813 201.085 93.564 200.811 93.1271C198.373 96.1205 194.764 98.0454 190.322 98.0454C189.095 98.0454 187.9 97.8755 186.815 97.4995L184.8 104.997H169.735L172.504 94.5991C169.189 97.0101 165.07 98.0454 160.975 98.0454C157.317 98.0454 153.279 97.3298 150.649 94.6233L148.524 102.514H134.328L135.637 97.6371H132.374L131.061 102.514H116.857L118.398 96.7958C115.637 97.7827 112.496 98.0454 109.748 98.0454C106.595 98.0454 103.704 97.6772 100.673 96.7796L98.035 95.9989L100.824 85.593L101.208 85.7626L103.932 75.5917L105.543 75.179C108.879 74.3261 112.031 74.0142 115.458 74.0142C118.149 74.0142 121.31 74.3617 123.569 75.9436C125.359 77.1932 126.371 79.1101 126.273 81.2813C126.195 83.0285 125.474 84.5693 124.356 85.7753L124.609 86.2649C126.269 84.5531 126.827 82.4426 127.481 79.9594L128.907 74.419H153.434L152.232 78.9404L153.01 78.2205C156.489 75.2237 161.041 74.0142 165.588 74.0142C169.939 74.0142 174.442 75.2844 176.746 78.7054L177.888 74.419H191.921C192.949 74.1471 194.033 74.0142 195.155 74.0142C199.27 74.0142 202.231 75.8416 203.549 78.9564L204.344 78.2205C207.826 75.2237 212.374 74.0142 216.925 74.0142C221.272 74.0142 225.775 75.2844 228.079 78.7054L229.221 74.419H245.232C246.578 74.419 247.883 74.5151 249.164 74.9487C250.71 75.4703 251.901 76.4126 252.602 77.6702L253.462 74.419H268.573L267.125 79.862C269.866 79.8987 272.818 80.441 274.886 82.3085ZM104.372 87.1658L104.792 85.5689L102.619 86.3932L103.887 86.9595L104.372 87.1658Z" fill="#2B2A29"/>
<path d="M107.213 87.5375H110.312C110.822 87.5375 112.719 87.5375 112.658 88.9133C112.626 89.6206 112.017 90.9309 109.175 90.9309C107.389 90.9309 104.966 90.5262 102.715 89.5196L101.487 94.0893C104.909 95.1005 107.634 95.2335 109.749 95.2335C121.34 95.2335 122.225 90.1582 122.282 88.88C122.356 87.2348 121.254 85.7583 119.142 85.6896L119.15 85.5886C121.54 85.0866 123.335 83.3038 123.429 81.1555C123.518 79.1413 121.98 76.8245 115.455 76.8245C112.356 76.8245 109.542 77.0594 106.259 77.8962L105.031 82.4658C106.887 81.7619 109.249 81.1235 111.764 81.1235C112.495 81.1235 114.57 81.1555 114.505 82.5668C114.489 83.0035 114.215 84.1774 111.662 84.1774H108.09L107.213 87.5375ZM149.742 77.2245H131.117L130.231 80.6545C129.265 84.347 128.327 87.4045 124.758 89.7869H123.224L120.554 99.7032H128.873L130.182 94.8253H139.334L138.025 99.7032H146.336L148.999 89.7869H146.413L149.742 77.2245ZM138.103 89.7869H133.069C135.313 87.7725 136.051 85.8912 136.752 83.2707L137.014 82.2641H140.076L138.103 89.7869ZM165.585 76.8245C156.213 76.8245 151.258 82.4658 151.014 88.0064C150.908 90.3599 151.858 95.2335 160.969 95.2335C169.72 95.2335 175.17 89.9886 175.422 84.3139C175.59 80.5856 173.131 76.8245 165.585 76.8245ZM164.338 81.8594C165.687 81.8594 165.708 83.0368 165.684 83.5424C165.619 85.0177 165.022 86.9678 164.493 88.1761C164.125 89.0497 163.457 90.1903 162.034 90.1903C161.45 90.1903 160.7 89.8876 160.757 88.5453C160.822 87.1328 161.602 84.347 162.237 83.2707C162.51 82.8017 163.135 81.8594 164.338 81.8594ZM188.608 77.2245H180.075L173.424 102.19H182.605L185.19 92.5771C186.283 94.9342 188.787 95.2335 190.317 95.2335C196.259 95.2335 201.136 90.6272 201.451 83.5057C201.736 77.1602 196.793 76.8245 195.149 76.8245C192.38 76.8245 189.818 77.8641 187.963 80.2132H187.816L188.608 77.2245ZM189.864 82.5347C190.336 82.5347 191.572 82.6688 191.491 84.48C191.446 85.4878 191.051 87.0321 190.528 88.0431C189.733 89.5886 188.694 89.9886 187.89 89.9886C187.237 89.9886 186.23 89.6893 186.299 88.0431C186.348 86.9678 186.703 85.5555 187.261 84.48C188.021 83.0034 188.991 82.5347 189.864 82.5347ZM216.911 76.8245C207.543 76.8245 202.592 82.4658 202.343 88.0064C202.237 90.3599 203.187 95.2335 212.302 95.2335C221.05 95.2335 226.499 89.9886 226.752 84.3139C226.92 80.5856 224.464 76.8245 216.911 76.8245ZM215.667 81.8594C217.017 81.8594 217.038 83.0368 217.017 83.5424C216.952 85.0177 216.352 86.9678 215.826 88.1761C215.455 89.0497 214.786 90.1903 213.367 90.1903C212.78 90.1903 212.03 89.8876 212.091 88.5453C212.156 87.1328 212.93 84.347 213.567 83.2707C213.84 82.8017 214.468 81.8594 215.667 81.8594ZM231.405 77.2245L226.72 94.8253H240.83C246.258 94.8253 249.056 91.7678 249.178 89.083C249.264 87.1328 247.718 85.8225 245.614 85.6242L245.618 85.5233C249.007 84.7506 250.377 82.6321 250.462 80.7186C250.617 77.2245 246.535 77.2245 245.222 77.2245H231.405ZM238.783 80.9905H239.912C240.574 80.9905 242.061 81.0225 242.008 82.2321C241.989 82.7697 241.637 84.0433 239.085 84.0433H237.955L238.783 80.9905ZM237.033 87.5697H238.346C239.146 87.5697 240.638 87.5697 240.577 89.0176C240.537 89.8876 239.867 91.0639 237.424 91.0639H236.111L237.033 87.5697ZM264.871 77.2245H255.651L251.001 94.8253H264.052C272.18 94.8253 274.239 90.3599 274.35 87.8734C274.427 86.1629 273.742 82.6688 266.817 82.6688C265.977 82.6688 264.263 82.7697 263.387 82.8338L264.871 77.2245ZM261.103 90.6638L262.156 86.7008H263.138C264.557 86.7008 265.108 87.4688 265.071 88.3103C265.034 89.115 264.418 90.6638 261.866 90.6638H261.103ZM297.71 88.0751L298.012 87.0321C298.354 85.8913 298.587 84.816 298.632 83.7074C298.672 82.9027 298.599 82.0611 298.343 81.2896C297.861 79.8819 296.062 76.8245 289.68 76.8245C279.839 76.8245 276.27 84.08 276.091 88.1407C275.977 90.6638 277.074 92.2734 278.375 93.281C280.626 95.0683 283.864 95.2335 286.018 95.2335C288.603 95.2335 291.494 94.9996 294.704 94.2233L295.924 89.6526C293.819 90.2923 290.842 90.8622 288.656 90.8622C284.79 90.8622 284.802 88.9487 284.948 88.0751H297.71ZM285.915 84.48L286.001 84.1443C286.752 81.2242 288.546 81.0225 289.129 81.0225C289.895 81.0225 290.973 81.3585 290.899 83.0688L290.744 84.112L290.655 84.48H285.915Z" fill="#F39314"/>
</svg>
