<svg width="235" height="4469" viewBox="0 0 235 4469" fill="none" xmlns="http://www.w3.org/2000/svg">
<path d="M0.5 0.5C0.776142 0.5 1 0.723858 1 1V17H0V1C0 0.723858 0.223858 0.5 0.5 0.5Z" fill="#F4662A"/>
<path d="M1 17V917H0V17H1Z" fill="#F4662A"/>
<path d="M1 917C1 961.735 37.2649 998 82 998C127.287 998 164 1034.71 164 1080V1817H163V1080C163 1035.26 126.735 999 82 999C36.7127 999 0 962.287 0 917H1Z" fill="#F4662A"/>
<path d="M164 1817V2717H163V1817H164Z" fill="#F4662A"/>
<path d="M164 2717V3617H163V2717H164Z" fill="#F4662A"/>
<path d="M164 4397V3617H163V4397C163 4436.49 195.012 4468.5 234.5 4468.5V4467.5C195.564 4467.5 164 4435.94 164 4397Z" fill="#F4662A"/>
</svg>
